<svg xmlns="http://www.w3.org/2000/svg" viewBox="0 0 220 340">
  <defs>
    <linearGradient id="rocketBody" x1="0" y1="0" x2="0" y2="1">
      <stop offset="0%" stop-color="#fff8e1"/>
      <stop offset="45%" stop-color="#e8e0c9"/>
      <stop offset="100%" stop-color="#b8b09b"/>
    </linearGradient>
    <linearGradient id="wingRed" x1="0" y1="0" x2="1" y2="1">
      <stop offset="0%" stop-color="#ef4444"/>
      <stop offset="100%" stop-color="#971919"/>
    </linearGradient>
  </defs>
  <path d="M110 20 C145 55 162 118 155 250 L65 250 C58 118 75 55 110 20Z" fill="url(#rocketBody)" stroke="#f7d774" stroke-width="3"/>
  <circle cx="110" cy="110" r="24" fill="#506896" stroke="#fff5d6" stroke-width="6"/>
  <path d="M65 250 L35 290 L73 280 L82 250 Z" fill="url(#wingRed)"/>
  <path d="M155 250 L185 290 L147 280 L138 250 Z" fill="url(#wingRed)"/>
  <path d="M88 250 H132 V300 H88 Z" fill="#d9cfb7"/>
  <path d="M88 266 L70 304 H150 L132 266 Z" fill="url(#wingRed)"/>
  <path d="M98 160 H122" stroke="#d62828" stroke-width="9" stroke-linecap="round"/>
  <path d="M95 184 H125" stroke="#d62828" stroke-width="9" stroke-linecap="round"/>
  <path d="M110 20 C122 42 126 56 128 76 H92 C94 56 98 42 110 20Z" fill="#d62828"/>
</svg>